DataType=double
version=3
OpenSimVersion=4.5-2023-11-26-efcdfd3eb
endheader
time	EMG01_right_gast_med	EMG02_right_glut_max	EMG03_left_gast_med	EMG04_left_glut_max	EMG05_right_glut_med	EMG06_right_bic_fem	EMG07_right_rect_fem	EMG08_right_vast_lat	EMG09_right_vast_med	EMG10_right_tens_fasc_lat	EMG11_left_glut_med	EMG12_left_bic_fem	EMG13_left_rect_fem	EMG14_left_vast_lat	EMG15_left_vast_med	EMG16_left_tens_fasc_lat
0	0.0003333123044788973	0.0004596793157311841	-0.02462080703787511	0.005877950265014125	-0.001974365331537606	0.004101353122950281	-0.001431291197975435	-0.00246457106902698	-0.005126604261791607	-0.002363586966487792	0.01134090916210667	-0.001870470271180018	0.00343576705933328	0.001348675649837166	0.0005948756181792786	0.01139026048573329
0.01	0.002396546521295789	0.009116551374118525	-0.01056618292101021	0.008513134283851363	0.001376994320549807	0.01213613096643318	0.001116512928352874	-0.001724034935942919	-0.005429660791032545	0.0127963826986398	0.01932050489423663	-0.0004932666632055983	0.007993961229026019	0.002428208684077896	0.002118971288899232	0.02526698904932022
0.02	0.004438399702128714	0.01741952958911915	0.00482524015082707	0.01107708350642984	0.004695965679781441	0.02026734683318361	0.003585378389525668	-0.0009521197235397027	-0.005713357093648901	0.02751134249318299	0.02710157797193393	0.0009778791632693879	0.01258392094372682	0.003512965289592062	0.003651026874183651	0.0386911958033321
0.03	0.006441448731542747	0.02531970149688933	0.02150601345042365	0.01353792547519776	0.00796041186980336	0.0284651209785966	0.005970310012235561	-0.0001500876565176602	-0.005964453366055436	0.04163777071633397	0.03464476631380419	0.002537976476263053	0.01716339659032499	0.004593624867354981	0.005176171497912438	0.05155966693375781
0.04	0.008388946232622083	0.03277413885059279	0.03941528903760858	0.01586532990245098	0.01115019573724469	0.03669872653460601	0.008267367819796711	0.0006811072750734558	-0.006168218150205389	0.05504306082580628	0.04191182866348719	0.004181132664628402	0.0216905336514006	0.005661152924571126	0.006679975608323602	0.06377417439044579
0.05	0.01026510674297848	0.03974674121852134	0.05847886129188626	0.01803113700113904	0.01424763365841915	0.04493683273677895	0.01047367158611287	0.001540865978941449	-0.006308504526956305	0.06760832501852605	0.04886600736818995	0.0059005661331999	0.02612455806698604	0.006706977822624105	0.008148735246178675	0.07524299856385498
0.06	0.0120553702772275	0.04620894991833863	0.07860924097188392	0.02000995221681105	0.01723788103660544	0.05314776553923735	0.0125873888569412	0.002428971940174537	-0.00636786495393351	0.07923087126472686	0.05547239555703952	0.00768862180637269	0.03042642748962387	0.007723149791442672	0.009569726696187343	0.08588233856739963
0.07000000000000001	0.013746637753754	0.0521403143495781	0.09970576723488561	0.02177969418221187	0.02010923799094998	0.06129978473954136	0.01460770739389848	0.003345598134976093	-0.006327706163664733	0.08982628103265411	0.06169830539328405	0.009536789444616495	0.0345594362523576	0.008702477940578881	0.01093142552684518	0.09561757609664118
0.08	0.0153274738205813	0.05752889812519036	0.1216547758344615	0.02332208455250412	0.02285336720351406	0.06936137626401241	0.0165347933386139	0.004291292569012156	-0.006168484556260875	0.09933002579354973	0.06751363334722192	0.01143572539526304	0.03848976342910158	0.00963864240340641	0.01222368640649664	0.1043843643597719
0.09	0.01678827359537748	0.06237151620497511	0.1443298512669937	0.02462307021431298	0.02546541927238462	0.07730155764471211	0.01836973657923715	0.005266942963320189	-0.005869941530920949	0.1076985743206842	0.0728912178193641	0.01337527877846551	0.04218695524489178	0.01052628001949715	0.01343788203956008	0.1121295207842698
0.1	0.01812139072745738	0.06667379728200494	0.1675921952695739	0.02567317001744994	0.02794406421118873	0.08509019406702163	0.02011448495888377	0.006273722050380571	-0.005411377201153727	0.1149099619271122	0.07780718388832461	0.01534452342358286	0.04562433574157791	0.01136104302559515	0.01456700109442921	0.1188117109505462
0.11	0.01932122513717425	0.0704500692570553	0.1912911441368895	0.02646773986079036	0.0302914307073126	0.09269832157814613	0.02177176899921738	0.007313015593567051	-0.004771959975711963	0.1209638160496299	0.08224126924163783	0.01733179708842806	0.04877934248418642	0.01213963115243561	0.01560570618516838	0.1244019204053341
0.12	0.02038427004614092	0.07372306996329975	0.2152648643778902	0.02700715173803864	0.03251295721341216	0.1000984730066902	0.02334501867013337	0.008386335625649499	-0.003931068608030713	0.1258808556112544	0.08617712456997406	0.01932474960063009	0.05163378637903076	0.0128597983919402	0.0165503539005382	0.128883719334827
0.13	0.02130911959365999	0.07652348967344648	0.2393412513797664	0.02729688394284244	0.03461716088588113	0.1072650007056489	0.02483827354820007	0.009495221631122475	-0.002868662530359253	0.1297019006558242	0.08960258091473902	0.02131040160875531	0.0541740359543916	0.01352033650170165	0.01739897955768915	0.132253331535963
0.14	0.02209644021530053	0.07888935578526972	0.2633390492262945	0.0273475209152354	0.03661533185593098	0.1141743881192606	0.02625608762606895	0.01064113263131668	-0.00156567555631445	0.1324864430178606	0.09250987520157182	0.02327521570622089	0.05639112681685899	0.0141210379130777	0.01815124983511208	0.1345195227463916
0.15	0.02274891060098251	0.08086527310101206	0.2870692019476827	0.02717466246557843	0.03852116144037647	0.1208055393644271	0.02760343006472351	0.01182533346839602	-4.427303557656678e-06	0.1343108384635509	0.09489582312054924	0.02520518177425567	0.05828079695663365	0.01466264093830812	0.0188083867765819	0.1357033237343088
0.16	0.02327113615943562	0.08250153509334357	0.3103364383234128	0.026798743583963	0.04035031383759218	0.1271400332424942	0.02888558324032171	0.01304877896095791	0.001830954047200732	0.1352661858979222	0.09676192622164179	0.0270859183218655	0.05984344896673489	0.01514676001123517	0.01937306684656897	0.1358376015553973
0.17	0.02366954448618498	0.08385312288533635	0.3329410852848991	0.02624476752561792	0.04211995171314902	0.133162326663433	0.03010803955296994	0.01431199983233461	0.003954104733371844	0.1354559609229657	0.09811439912000888	0.02890279124068193	0.06108404156037239	0.01557580328919048	0.01984929869366897	0.1349664898723764
0.18	0.02395226845658487	0.08497861008525318	0.3546811000168973	0.02554195605272591	0.04384822687567126	0.1388598934229073	0.03127639871647758	0.01561499424971351	0.006376001850622087	0.1349934709213068	0.09896410492573994	0.03064105076351702	0.06201191458917631	0.01595287948385709	0.02024228302136887	0.1331446876348956
0.19	0.02412902331674078	0.0859389933365327	0.3753543085733676	0.02472332172052629	0.04555374799545855	0.1442232875338506	0.03239626755135833	0.01695712847667901	0.009104551606222117	0.1339991975273108	0.09932639335895005	0.03228598666835221	0.06264055326154613	0.01628169543726201	0.02055825754690227	0.1304366352781634
0.2	0.02421098362585541	0.08679647022597635	0.3947608385545353	0.02382516820161823	0.04725503801987665	0.149246124534998	0.03347316443182859	0.01833704966433864	0.01214419834509119	0.1325980893438049	0.09922084493403327	0.0338231010282505	0.06298729804459717	0.01656644580640158	0.02080432958343091	0.1269155787867116
0.21	0.02421066524790116	0.08761318773377874	0.4127057327503795	0.02288652579878095	0.04896999442285062	0.1539249780344692	0.03451243034641113	0.01975261329333112	0.01549556375941011	0.1309168630310714	0.0986709325120764	0.03523829705147208	0.06307300679900954	0.01681169629884457	0.02098829845085977	0.1226625338542391
0.22	0.0241418168920528	0.0884499853707425	0.4290017268962825	0.02194853029466014	0.05071536541690436	0.1582591919470274	0.0355191480633215	0.02120082724123021	0.01915512590454881	0.1290813654289599	0.0977036155991345	0.03651808165834484	0.06292167520322957	0.01702226221064358	0.02111846983169827	0.1177651640997293
0.23	0.02401932496194017	0.0893651572874172	0.4434721663679904	0.02105375414557738	0.0525062546146707	0.1622506116108751	0.03649807034525247	0.02267781385938607	0.02311494764394171	0.1272140441863293	0.09634888283625234	0.03764977831899934	0.06256002106013073	0.0172030844572866	0.02120346440590384	0.1123165885036673
0.24	0.02385913462694141	0.09041325694425063	0.4559540235326062	0.02024549983109597	0.0543556654699202	0.1659032394541666	0.03745355774604746	0.02417879081648355	0.02736246397322066	0.1254315695970003	0.09463925599322266	0.03862174541907832	0.06201703852856065	0.01735910563103988	0.02125202357554889	0.1064141341782812
0.25	0.02367818905318292	0.09164396641891326	0.4663009602413034	0.01956706583278559	0.05627409544186283	0.1692228246003332	0.0383895262791063	0.02569807083642585	0.03188033730228385	0.123842645615096	0.09260926659846022	0.03942359433027064	0.06132352989304774	0.01749514869336391	0.02127281567735867	0.1001580514675098
0.26	0.02349438774402451	0.09310105022881221	0.4743863602603587	0.01906099617749337	0.05826918845906888	0.1722164024304573	0.03930940502801862	0.02722907981921088	0.03664638916293847	0.1225460432185855	0.09029491532328326	0.04004640080468545	0.0605116242006039	0.01761580079008906	0.02127424655948453	0.09365020904028232
0.27	0.02332656412145328	0.09482141126554444	0.4801062364219248	0.01876832483928346	0.06034545295493678	0.1748918081658522	0.04021610341213228	0.02876439218204277	0.04163361595433537	0.1216288844234739	0.08773312420991526	0.04048290342189492	0.05961429271526766	0.01772530457118054	0.02126427854551412	0.08699278708529046
0.28	0.02319448192173491	0.09683426478548383	0.4833818999077142	0.01872782658255502	0.06250405137474835	0.1772571938848498	0.04111198727416682	0.03029578168778725	0.04681029523184495	0.1211652001388484	0.08496119191775169	0.04072768339728697	0.05866487031105202	0.01782745938970099	0.02125026154141445	0.08028698703001004
0.29	0.02311884962375376	0.09916044536377641	0.4841622695586388	0.01897528596578705	0.06474266548333379	0.1793205789777201	0.04199886231133416	0.0318142857887329	0.05214018766246981	0.121214779579675	0.0820162617294089	0.04077732081507153	0.05769659011325054	0.01792553470338819	0.02123877947500337	0.0736317761919638
0.3	0.02312135183337813	0.1018118606670674	0.482425702701332	0.01954279620229996	0.06705544003231664	0.181089461286688	0.0428779627963919	0.03331028193051529	0.057582838107121	0.1218223233704734	0.0789348110811408	0.04063052308356362	0.05674213652118845	0.01802219774820255	0.02123551459065733	0.06712268514619182
0.31	0.02322469619069333	0.1047911046142082	0.4781812450734762	0.02045809944070257	0.06943300550402019	0.1825705119235729	0.04374994323539661	0.03477357540022515	0.06309397735324022	0.1230169071107545	0.07575217046614477	0.04028822194559709	0.05583321967313608	0.01811945715278722	0.02124513150049046	0.06085067438227201
0.32	0.02345267393655285	0.1080912413639565	0.4714692187323959	0.02174397974389336	0.07186257890295546	0.1837693714480512	0.04461487075762812	0.03619349965339053	0.06862602379355891	0.1248117570977922	0.07250207937108336	0.03975363549944273	0.05500017284288555	0.0182186237769414	0.02127118235397861	0.05490108513235789
0.33	0.02383023181814065	0.1116957705707296	0.4623610882930692	0.02341771954201763	0.07432814007911387	0.1846905587566234	0.04547221663836754	0.03755903077504971	0.0741286818234513	0.1272043349727816	0.06921628726600695	0.03903229137245582	0.05427157356984971	0.0183202896937568	0.02131603401067885	0.04935268701744547
0.34	0.02438355250093382	0.1155787826375885	0.4509585721102597	0.02549062965551303	0.07681067990487217	0.1853374971231861	0.04632084628804547	0.03885891736865189	0.0795496309191791	0.1301767231586878	0.06592420764034065	0.03813200688172205	0.05367388978987346	0.01842432580215801	0.02138081772094563	0.04427683242519696
0.35	0.02514013998633252	0.1197053094988496	0.437392004025452	0.02796766226176644	0.07928851556243978	0.185712654767177	0.04715900823858965	0.04008182602516722	0.0848352962325362	0.1336962981664478	0.06265263198725782	0.0370628226335343	0.05323115369557646	0.01852989810321783	0.02146540160949262	0.03973672466334401
0.36	0.02612890566201798	0.1240318717957512	0.4218180004040553	0.0308471155093729	0.08173766687843434	0.1858177900115309	0.04798432409985474	0.04121650127518483	0.08993168809718982	0.1377166744202756	0.05942550866149046	0.03583688843568594	0.05296466770362664	0.01863550236602585	0.0215683862076662	0.03578680438480897
